<svg id="圖層_1" data-name="圖層 1" xmlns="http://www.w3.org/2000/svg" viewBox="0 0 461.18 190.59"><defs><style>.cls-1{fill:#eb9498;}.cls-1,.cls-2,.cls-3{stroke:#f9faf2;stroke-miterlimit:10;stroke-width:7px;}.cls-2{fill:#adc5e6;}.cls-3{fill:#d6edf5;}</style></defs><path class="cls-1" d="M42.13,36.83H319A41.95,41.95,0,0,1,361,78.78V153.3a0,0,0,0,1,0,0H42.13a0,0,0,0,1,0,0V36.83A0,0,0,0,1,42.13,36.83Z"/><circle class="cls-2" cx="89.19" cy="148.66" r="22.06"/><circle class="cls-2" cx="310.12" cy="148.66" r="22.06"/><path class="cls-3" d="M66.4,55.65H313.51a23.18,23.18,0,0,1,23.18,23.18V95.06a0,0,0,0,1,0,0H66.4a0,0,0,0,1,0,0V55.65A0,0,0,0,1,66.4,55.65Z"/><line class="cls-3" x1="279.04" y1="55.65" x2="279.04" y2="95.06"/><line class="cls-3" x1="225.88" y1="55.65" x2="225.88" y2="95.06"/><line class="cls-3" x1="172.72" y1="55.65" x2="172.72" y2="95.06"/><line class="cls-3" x1="119.56" y1="55.65" x2="119.56" y2="95.06"/></svg>